<?xml version="1.0" encoding="utf-8"?>
<!-- Generator: Adobe Illustrator 16.0.0, SVG Export Plug-In . SVG Version: 6.00 Build 0)  -->
<!DOCTYPE svg PUBLIC "-//W3C//DTD SVG 1.1//EN" "http://www.w3.org/Graphics/SVG/1.1/DTD/svg11.dtd">
<svg version="1.1" id="OBJECTS" xmlns="http://www.w3.org/2000/svg" xmlns:xlink="http://www.w3.org/1999/xlink" x="0px" y="0px"
	 width="750px" height="500px" viewBox="0 0 750 500" enable-background="new 0 0 750 500" xml:space="preserve">
<g>
	<g>
		<g>
			<circle fill="#FFFFFF" cx="79.564" cy="258.786" r="2.183"/>
			<circle fill="#FFFFFF" cx="194.811" cy="378.38" r="2.183"/>
			<circle fill="#FFFFFF" cx="57.934" cy="62.064" r="2.183"/>
			<circle fill="#FFFFFF" cx="215.11" cy="310.242" r="2.183"/>
			<circle fill="#FFFFFF" cx="176.906" cy="153.031" r="2.183"/>
			<circle fill="#FFFFFF" cx="214.099" cy="95.813" r="2.183"/>
			<circle fill="#FFFFFF" cx="52.021" cy="287.246" r="2.183"/>
			<circle fill="#FFFFFF" cx="43.312" cy="252.445" r="0.448"/>
			<circle fill="#FFFFFF" cx="47.123" cy="142.363" r="0.448"/>
			<circle fill="#FFFFFF" cx="137.252" cy="64.117" r="0.448"/>
			<circle fill="#FFFFFF" cx="162.916" cy="157.693" r="0.448"/>
			<circle fill="#FFFFFF" cx="163.364" cy="388.781" r="0.448"/>
			<circle fill="#FFFFFF" cx="128.015" cy="296.868" r="0.448"/>
			<circle fill="#FFFFFF" cx="60.405" cy="223.971" r="0.448"/>
			<circle fill="#FFFFFF" cx="214.098" cy="141.352" r="0.448"/>
			<circle fill="#FFFFFF" cx="196.994" cy="60.62" r="0.448"/>
			<circle fill="#FFFFFF" cx="52.021" cy="97.996" r="0.448"/>
			<circle fill="#FFFFFF" cx="43.312" cy="162.265" r="0.448"/>
			<circle fill="#FFFFFF" cx="79.564" cy="66.141" r="0.448"/>
			<circle fill="#FFFFFF" cx="175.638" cy="169.175" r="0.448"/>
			<circle fill="#FFFFFF" cx="43.76" cy="295.076" r="0.448"/>
			<circle fill="#FFFFFF" cx="164.26" cy="376.5" r="0.448"/>
			<circle fill="#FFFFFF" cx="167.989" cy="165.059" r="0.448"/>
			<circle fill="#FFFFFF" cx="222.546" cy="299.992" r="0.448"/>
			<circle fill="#FFFFFF" cx="135.482" cy="295.972" r="0.448"/>
			<circle fill="#FFFFFF" cx="234.862" cy="209.916" r="0.448"/>
			<circle fill="#FFFFFF" cx="202.442" cy="347.874" r="0.448"/>
			<circle fill="#FFFFFF" cx="229.327" cy="372.582" r="0.448"/>
			<circle fill="#FFFFFF" cx="38.06" cy="235.684" r="0.448"/>
			<circle fill="#FFFFFF" cx="230.787" cy="161.816" r="0.448"/>
			<circle fill="#FFFFFF" cx="204.679" cy="72.043" r="0.448"/>
			<circle fill="#FFFFFF" cx="58.945" cy="231.756" r="1.012"/>
			<circle fill="#FFFFFF" cx="229.775" cy="104.373" r="1.012"/>
			<circle fill="#FFFFFF" cx="151.947" cy="380.954" r="1.011"/>
			<circle fill="#FFFFFF" cx="167.541" cy="178.688" r="1.012"/>
			<circle fill="#FFFFFF" cx="215.11" cy="343.834" r="1.012"/>
			<circle fill="#FFFFFF" cx="195.823" cy="328.397" r="1.011"/>
			<circle fill="#FFFFFF" cx="226.499" cy="188.365" r="1.012"/>
			<circle fill="#FFFFFF" cx="127.567" cy="230.745" r="1.012"/>
			<circle fill="#FFFFFF" cx="128.579" cy="158.362" r="1.011"/>
			<circle fill="#FFFFFF" cx="162.916" cy="143.823" r="1.011"/>
			<circle fill="#FFFFFF" cx="111.186" cy="169.175" r="1.012"/>
			<circle fill="#FFFFFF" cx="129.591" cy="271.884" r="1.011"/>
			<circle fill="#FFFFFF" cx="42.3" cy="224.982" r="1.011"/>
			<circle fill="#FFFFFF" cx="222.994" cy="65.129" r="1.012"/>
			<circle fill="#FFFFFF" cx="82.759" cy="75.238" r="1.012"/>
			<circle fill="#FFFFFF" cx="41.289" cy="87.699" r="1.012"/>
			<circle fill="#FFFFFF" cx="57.933" cy="164.047" r="1.011"/>
			<circle fill="#FFFFFF" cx="112.198" cy="85.458" r="1.012"/>
			<circle fill="#FFFFFF" cx="157.53" cy="165.506" r="1.012"/>
			<path fill="#FFFFFF" d="M75.228,218.476L75.228,218.476c0-2.395-1.941-4.337-4.336-4.337l0,0c2.395,0,4.336-1.941,4.336-4.336
				l0,0c0,2.395,1.941,4.336,4.337,4.336l0,0C77.169,214.139,75.228,216.081,75.228,218.476z"/>
			<path fill="#FFFFFF" d="M153.193,131.375L153.193,131.375c0-2.395-1.941-4.336-4.336-4.336l0,0c2.395,0,4.336-1.941,4.336-4.336
				l0,0c0,2.395,1.942,4.336,4.337,4.336l0,0C155.135,127.038,153.193,128.979,153.193,131.375z"/>
			<path fill="#FFFFFF" d="M132.916,343.834L132.916,343.834c0-2.395-1.941-4.337-4.336-4.337l0,0c2.395,0,4.336-1.941,4.336-4.336
				l0,0c0,2.395,1.941,4.336,4.336,4.336l0,0C134.857,339.497,132.916,341.439,132.916,343.834z"/>
			<path fill="#FFFFFF" d="M216.122,87.699L216.122,87.699c0-2.395-1.941-4.336-4.336-4.336l0,0c2.395,0,4.336-1.941,4.336-4.336
				l0,0c0,2.395,1.941,4.336,4.337,4.336l0,0C218.063,83.362,216.122,85.304,216.122,87.699z"/>
		</g>
	</g>
</g>
</svg>
